<?xml version="1.0" encoding="utf-8"?>
<!-- Generator: Adobe Illustrator 23.1.1, SVG Export Plug-In . SVG Version: 6.00 Build 0)  -->
<svg version="1.1" id="a6289666-6d3e-4a29-9029-0e42401698fd"
	 xmlns="http://www.w3.org/2000/svg" xmlns:xlink="http://www.w3.org/1999/xlink" x="0px" y="0px" viewBox="0 0 211.5 30.1"
	 style="enable-background:new 0 0 211.5 30.1;" xml:space="preserve">
<style type="text/css">
	.st0{fill:#2A2A49;}
	.st1{fill:#FF8F57;}
	.st2{fill:#FFFFFF;}
	.st3{fill:#41B784;}
	.st4{fill:#418FB5;}
	.st5{fill:#F74F4F;}
	.st6{fill:#C3424F;}
</style>
<path class="st0" d="M70.8,17.9L61.9,2.5h4.7l6.2,10.8L79,2.5h4.7l-8.9,15.4v11.7h-4.1L70.8,17.9z"/>
<path class="st0" d="M101,14.7c-3.6-3.5-9.4-3.5-13,0c-1.7,1.6-2.7,3.9-2.7,6.3c-0.1,2.4,0.9,4.8,2.6,6.5c1.7,1.7,4,2.7,6.4,2.6
	c2.5,0.1,4.8-0.9,6.6-2.6c1.8-1.7,2.7-4,2.6-6.4C103.6,18.7,102.7,16.4,101,14.7z M98.1,25.1c-2.1,2-5.4,2-7.4,0
	c-1-1.1-1.5-2.6-1.4-4.1l0-0.1c-0.1-1.4,0.4-2.8,1.4-3.9c2-2,5.3-2,7.4,0c1,1.1,1.5,2.5,1.4,4C99.6,22.6,99.1,24,98.1,25.1z"/>
<g>
	<path class="st1" d="M94.4,26.1c-1.3,0-2.5-0.5-3.4-1.4c-0.8-1-1.3-2.2-1.2-3.6l0,0l0-0.2c-0.1-1.3,0.4-2.5,1.2-3.5
		c0.9-0.9,2.1-1.3,3.3-1.3c1.3,0,2.4,0.5,3.3,1.4c0.9,1,1.3,2.3,1.2,3.6c0.1,1.4-0.4,2.7-1.3,3.7C96.9,25.7,95.7,26.1,94.4,26.1z"/>
	<path class="st2" d="M94.4,16.6c1.1,0,2.2,0.4,3,1.2c0.8,0.9,1.2,2.1,1.1,3.3l0,0.1l0,0.1c0.1,1.2-0.3,2.4-1.1,3.3
		c-0.8,0.8-1.9,1.2-3,1.2c-1.1,0-2.2-0.4-3-1.2c-0.7-0.9-1.1-2-1.1-3.1l0.1-0.1l0-0.3c0-1.2,0.3-2.3,1.1-3.1
		C92.3,17,93.3,16.6,94.4,16.6 M94.4,15.6c-1.3,0-2.7,0.5-3.7,1.5c-0.9,1.1-1.4,2.5-1.4,3.9l0,0.1c-0.1,1.5,0.4,2.9,1.4,4.1
		c1,1,2.4,1.5,3.7,1.5s2.7-0.5,3.7-1.5c1-1.1,1.5-2.5,1.4-4c0.1-1.5-0.4-2.9-1.4-4C97.1,16.1,95.8,15.6,94.4,15.6L94.4,15.6z"/>
</g>
<path class="st0" d="M122.9,14.6c-1.4-1.7-3.6-2.6-5.8-2.6c-2.1,0-4,0.9-5.4,2.5V0h-4v29.6h4v-1.8c1.4,1.5,3.3,2.3,5.3,2.3
	c2.2,0,4.4-0.9,5.8-2.6c1.6-1.8,2.4-4.1,2.3-6.5C125.2,18.7,124.4,16.4,122.9,14.6z M119.8,25.1c-0.8,1-2.1,1.6-3.4,1.5
	c-1.3,0-2.6-0.5-3.5-1.5c-0.9-1.1-1.4-2.5-1.3-4c-0.1-1.4,0.4-2.8,1.4-3.9c0.9-1,2.2-1.6,3.5-1.5c1.3,0,2.6,0.6,3.4,1.6
	c0.9,1.1,1.4,2.5,1.3,4C121.2,22.7,120.7,24.1,119.8,25.1z"/>
<g>
	<path class="st3" d="M116.2,26.2c-1.1,0-2.2-0.5-3-1.4c-0.8-1-1.3-2.3-1.2-3.6c-0.1-1.4,0.4-2.6,1.2-3.6c0.8-0.9,1.9-1.4,3-1.4
		l0.1,0c1.2,0,2.3,0.5,3,1.4c0.8,1,1.3,2.3,1.2,3.7c0,1.3-0.4,2.6-1.2,3.6c-0.7,0.9-1.8,1.4-2.9,1.4L116.2,26.2z"/>
	<path class="st2" d="M116.2,16.7l0.1,0l0,0l0,0l0.1,0c1,0,1.9,0.4,2.6,1.2c0.8,0.9,1.2,2.1,1.1,3.3l0,0l0,0c0,1.2-0.4,2.3-1.1,3.2
		c-0.6,0.7-1.6,1.2-2.6,1.2l-0.1,0l0,0l0,0l-0.1,0c-1,0-1.9-0.4-2.6-1.2c-0.8-0.9-1.2-2.1-1.1-3.3l0,0l0,0c-0.1-1.2,0.3-2.3,1.1-3.2
		C114.3,17.1,115.2,16.7,116.2,16.7 M116.2,15.7c-1.3,0-2.5,0.6-3.4,1.5c-0.9,1.1-1.4,2.5-1.4,3.9c-0.1,1.5,0.4,2.9,1.3,4
		c0.8,1,2.1,1.5,3.3,1.5c0.1,0,0.1,0,0.2,0c0,0,0.1,0,0.1,0c1.3,0,2.5-0.6,3.3-1.5c0.9-1.1,1.4-2.5,1.4-3.9c0.1-1.5-0.4-2.9-1.3-4
		c-0.8-1-2-1.6-3.3-1.6c0,0,0,0-0.1,0C116.3,15.7,116.3,15.7,116.2,15.7L116.2,15.7z"/>
</g>
<path class="st0" d="M128.8,5.4c0-1.4,1.2-2.6,2.6-2.6c1.4,0,2.6,1.2,2.6,2.6c0,0.7-0.3,1.4-0.8,1.8C132.7,7.7,132,8,131.3,8
	c-0.7,0-1.4-0.3-1.8-0.8C129,6.8,128.7,6.1,128.8,5.4z M133.3,12.5v17.1h-4V12.5L133.3,12.5z"/>
<path class="st0" d="M142.3,0v18.1l5.6-5.5h5.3l-7.4,7.2l8,9.9h-5.1l-5.7-7.2l-0.6,0.6v6.6h-4V0H142.3z"/>
<path class="st0" d="M168.9,12.5v2c-1.4-1.5-3.3-2.4-5.4-2.5c-2.2,0-4.3,0.9-5.8,2.6c-1.5,1.8-2.4,4.1-2.3,6.4
	c-0.1,2.4,0.7,4.7,2.3,6.5c0.1,0.1,0.3,0.3,0.4,0.4c3,2.9,7.8,2.9,10.7-0.1v1.8h4V12.5H168.9z M167.8,25c-0.9,1-2.2,1.6-3.5,1.5
	c-1.3,0-2.6-0.6-3.4-1.6c-0.9-1.1-1.4-2.5-1.3-4c-0.1-1.4,0.4-2.8,1.4-3.9c0.8-1,2.1-1.6,3.4-1.5c1.3,0,2.6,0.5,3.5,1.5
	c0.9,1.1,1.4,2.6,1.4,4C169.2,22.5,168.7,23.9,167.8,25z"/>
<g>
	<path class="st4" d="M164.2,26.1c-1.2,0-2.3-0.5-3-1.4c-0.8-1-1.3-2.3-1.2-3.7c-0.1-1.4,0.4-2.6,1.2-3.6c0.7-0.9,1.8-1.4,2.9-1.4
		l0.2,0c1.2,0,2.2,0.5,3,1.4c0.8,1,1.3,2.3,1.2,3.7c0.1,1.4-0.4,2.7-1.2,3.7c-0.8,0.8-1.9,1.3-3,1.3L164.2,26.1z"/>
	<path class="st2" d="M164.4,16.5c1,0,2,0.4,2.6,1.2c0.8,0.9,1.2,2.1,1.1,3.3l0,0l0,0c0,1.2-0.3,2.4-1.1,3.3
		c-0.7,0.8-1.6,1.2-2.6,1.2l-0.1,0l0,0l0,0l-0.1,0c-1,0-1.9-0.4-2.6-1.2c-0.8-0.9-1.1-2.1-1.1-3.3l0,0l0,0c0-1.2,0.3-2.3,1.1-3.2
		c0.6-0.8,1.6-1.2,2.5-1.2l0.1,0l0,0l0,0L164.4,16.5 M164.4,15.5c0,0-0.1,0-0.1,0c0,0-0.1,0-0.1,0c-1.3,0-2.5,0.6-3.3,1.6
		c-0.9,1.1-1.4,2.5-1.4,3.9c-0.1,1.5,0.4,2.9,1.3,4c0.8,1,2,1.6,3.3,1.6c0,0,0,0,0.1,0c0.1,0,0.1,0,0.2,0c1.3,0,2.5-0.6,3.4-1.5
		c0.9-1.1,1.4-2.5,1.4-4c0.1-1.4-0.4-2.9-1.4-4C166.9,16.1,165.7,15.5,164.4,15.5L164.4,15.5z"/>
</g>
<path class="st0" d="M181.8,0v18.1l5.6-5.5h5.3l-7.4,7.2l8,9.9h-5.1l-5.7-7.2l-0.6,0.6v6.6h-4V0H181.8z"/>
<path class="st0" d="M208.2,23.3c-0.6,1-1.3,1.9-2.2,2.6c-0.7,0.5-1.6,0.7-2.4,0.7c-1.2,0-2.3-0.4-3.1-1.2c-0.8-0.9-1.3-2.1-1.4-3.4
	h12.3l0-0.9c0.2-2.4-0.6-4.8-2.2-6.6c-1.5-1.6-3.7-2.5-6-2.4c-2.3-0.1-4.5,0.8-6,2.5c-1.5,1.8-2.4,4.2-2.2,6.6
	c-0.1,2.4,0.7,4.8,2.3,6.6c1.6,1.7,3.9,2.6,6.2,2.5c0.8,0,1.7-0.1,2.5-0.3c0.8-0.2,1.5-0.5,2.1-0.9c0.7-0.4,1.3-1,1.9-1.6
	c0.6-0.7,1.2-1.5,1.6-2.3L208.2,23.3z M199.9,17.5c0.2-0.4,0.5-0.7,0.9-1c0.7-0.6,1.6-0.9,2.5-0.8c2-0.1,3.7,1.2,4,3.2l-8,0
	C199.5,18.3,199.7,17.9,199.9,17.5z"/>
<g>
	<path class="st5" d="M200,18.3c0.1-0.2,0.2-0.4,0.3-0.6c0.2-0.3,0.5-0.6,0.8-0.9c0.6-0.5,1.4-0.7,2.1-0.7c0.2,0,0.2,0,0.3,0
		c1.4,0,2.6,0.9,3.1,2.2L200,18.3z"/>
	<path class="st2" d="M203.6,16.6c0.9,0,1.8,0.5,2.3,1.2l-4.9,0c0.2-0.2,0.3-0.4,0.5-0.5c0.5-0.4,1.2-0.6,1.9-0.6c0,0,0,0,0,0l0,0
		l0,0C203.4,16.6,203.5,16.6,203.6,16.6 M203.6,15.6c-0.1,0-0.2,0-0.3,0c0,0,0,0,0,0c-0.9,0-1.8,0.3-2.5,0.9c-0.3,0.3-0.7,0.6-0.9,1
		c-0.2,0.4-0.4,0.8-0.6,1.3l8,0C207,16.9,205.4,15.6,203.6,15.6L203.6,15.6z"/>
</g>
<g>
	<ellipse transform="matrix(0.9747 -0.2235 0.2235 0.9747 -4.9198 2.4898)" class="st5" cx="8.5" cy="23" rx="3.1" ry="6.6"/>
	<polygon class="st5" points="44.8,29.6 9.5,29.5 6.5,16.7 38.2,1.2 	"/>
	<ellipse transform="matrix(0.9747 -0.2235 0.2235 0.9747 -2.4006 9.6548)" class="st6" cx="41.5" cy="15.4" rx="4.5" ry="14.5"/>
</g>
</svg>
