<svg id="a6289666-6d3e-4a29-9029-0e42401698fd" data-name="レイヤー 1" xmlns="http://www.w3.org/2000/svg" viewBox="0 0 149.61 30.18"><path d="M34.17,27.92,25.32,12.51H30l6.2,10.84,6.22-10.84h4.72l-8.9,15.41V39.65h-4.1Z" transform="translate(-25.32 -9.96)"/><path d="M48.73,31a8.51,8.51,0,0,1,2.65-6.31,9.37,9.37,0,0,1,13,0A8.74,8.74,0,0,1,67,31.1a8.65,8.65,0,0,1-2.65,6.45,9.05,9.05,0,0,1-6.56,2.59,8.71,8.71,0,0,1-6.45-2.64A8.87,8.87,0,0,1,48.73,31Zm4,.07a5.78,5.78,0,0,0,1.37,4.06,5.31,5.31,0,0,0,7.42,0,5.59,5.59,0,0,0,1.39-4,5.62,5.62,0,0,0-1.39-4,5.26,5.26,0,0,0-7.38,0A5.5,5.5,0,0,0,52.77,31Z" transform="translate(-25.32 -9.96)"/><path d="M75.13,10V24.51a7.3,7.3,0,0,1,5.38-2.46,7.4,7.4,0,0,1,5.77,2.59A9.23,9.23,0,0,1,88.58,31a9.4,9.4,0,0,1-2.32,6.54,7.5,7.5,0,0,1-5.82,2.57,7.38,7.38,0,0,1-5.31-2.29v1.8H71.18V10Zm9.41,21.25a5.92,5.92,0,0,0-1.34-4,4.28,4.28,0,0,0-3.39-1.58,4.53,4.53,0,0,0-3.55,1.53,5.65,5.65,0,0,0-1.36,3.94,5.78,5.78,0,0,0,1.34,4,4.43,4.43,0,0,0,3.51,1.53,4.38,4.38,0,0,0,3.42-1.53A5.65,5.65,0,0,0,84.54,31.21Z" transform="translate(-25.32 -9.96)"/><path d="M92.17,15.41a2.58,2.58,0,1,1,4.39,1.84,2.42,2.42,0,0,1-1.81.76,2.46,2.46,0,0,1-1.83-.76A2.51,2.51,0,0,1,92.17,15.41Zm4.55,7.12V39.65h-4V22.53Z" transform="translate(-25.32 -9.96)"/><path d="M105.68,10v18.1l5.57-5.53h5.31l-7.43,7.18,8,9.94H112l-5.66-7.23-.64.63v6.6h-4V10Z" transform="translate(-25.32 -9.96)"/><path d="M132.28,22.53h4V39.65h-4v-1.8a7.59,7.59,0,0,1-11.13-.28,9.55,9.55,0,0,1-2.3-6.54,9.27,9.27,0,0,1,2.3-6.41,7.44,7.44,0,0,1,5.77-2.57,7.28,7.28,0,0,1,5.36,2.46ZM122.89,31a6,6,0,0,0,1.32,4,4.33,4.33,0,0,0,3.41,1.57,4.54,4.54,0,0,0,3.55-1.52,5.84,5.84,0,0,0,1.35-4,5.86,5.86,0,0,0-1.35-4,4.46,4.46,0,0,0-3.51-1.53,4.34,4.34,0,0,0-3.41,1.55A5.65,5.65,0,0,0,122.89,31Z" transform="translate(-25.32 -9.96)"/><path d="M145.2,10v18.1l5.57-5.53h5.31l-7.44,7.18,8,9.94h-5.13l-5.66-7.23-.63.63v6.6h-4V10Z" transform="translate(-25.32 -9.96)"/><path d="M174.76,32H162.5a5.2,5.2,0,0,0,1.37,3.36A4.16,4.16,0,0,0,167,36.61a4,4,0,0,0,2.44-.71,10,10,0,0,0,2.16-2.6l3.34,1.86a12.9,12.9,0,0,1-1.63,2.26A8.56,8.56,0,0,1,171.44,39a7.23,7.23,0,0,1-2.12.89,10.82,10.82,0,0,1-2.48.28,8.07,8.07,0,0,1-6.16-2.46,9.27,9.27,0,0,1-2.32-6.58,9.49,9.49,0,0,1,2.25-6.57,7.79,7.79,0,0,1,6-2.48,7.65,7.65,0,0,1,6,2.41,9.43,9.43,0,0,1,2.18,6.63Zm-4.06-3.24a3.78,3.78,0,0,0-4-3.16,4,4,0,0,0-2.5.85,4.21,4.21,0,0,0-.89,1,4.91,4.91,0,0,0-.56,1.32Z" transform="translate(-25.32 -9.96)"/></svg>