<?xml version="1.0" encoding="utf-8"?>
<!-- Generator: Adobe Illustrator 23.1.1, SVG Export Plug-In . SVG Version: 6.00 Build 0)  -->
<svg version="1.1" id="a6289666-6d3e-4a29-9029-0e42401698fd"
	 xmlns="http://www.w3.org/2000/svg" xmlns:xlink="http://www.w3.org/1999/xlink" x="0px" y="0px" viewBox="0 0 149.6 30.2"
	 style="enable-background:new 0 0 149.6 30.2;" xml:space="preserve">
<style type="text/css">
	.st0{fill:#2A2A49;}
	.st1{fill:#FF8F57;}
	.st2{fill:#FFFFFF;}
	.st3{fill:#41B784;}
	.st4{fill:#418FB5;}
	.st5{fill:#F74F4F;}
</style>
<path class="st0" d="M8.8,18L0,2.6h4.7l6.2,10.8l6.2-10.8h4.7L12.9,18v11.7H8.8L8.8,18z"/>
<path class="st0" d="M39.1,14.7c-3.6-3.5-9.4-3.5-13,0c-1.7,1.6-2.7,3.9-2.7,6.3c-0.1,2.4,0.9,4.8,2.6,6.5c1.7,1.7,4,2.7,6.4,2.6
	c2.5,0.1,4.8-0.9,6.6-2.6c1.8-1.7,2.7-4,2.6-6.4C41.7,18.7,40.8,16.4,39.1,14.7z M36.2,25.2c-2.1,2-5.4,2-7.4,0
	c-1-1.1-1.5-2.6-1.4-4.1l0-0.1c-0.1-1.4,0.4-2.8,1.4-3.9c2-2,5.3-2,7.4,0c1,1.1,1.5,2.5,1.4,4C37.7,22.6,37.2,24.1,36.2,25.2z"/>
<g>
	<path class="st1" d="M32.5,26.2c-1.3,0-2.5-0.5-3.4-1.4c-0.8-1-1.3-2.2-1.2-3.6l0,0l0-0.2c-0.1-1.3,0.4-2.5,1.2-3.5
		c0.9-0.9,2.1-1.3,3.3-1.3c1.3,0,2.4,0.5,3.3,1.4c0.9,1,1.3,2.3,1.2,3.6c0.1,1.4-0.4,2.7-1.3,3.7C34.9,25.7,33.8,26.2,32.5,26.2z"/>
	<path class="st2" d="M32.5,16.7c1.1,0,2.2,0.4,3,1.2c0.8,0.9,1.2,2.1,1.1,3.3l0,0.1l0,0.1c0.1,1.2-0.3,2.4-1.1,3.3
		c-0.8,0.8-1.9,1.2-3,1.2c-1.1,0-2.2-0.4-3-1.2c-0.7-0.9-1.1-2-1.1-3.1l0.1-0.1l0-0.3c0-1.2,0.3-2.3,1.1-3.1
		C30.3,17.1,31.4,16.7,32.5,16.7 M32.5,15.7c-1.3,0-2.7,0.5-3.7,1.5c-0.9,1.1-1.4,2.5-1.4,3.9l0,0.1c-0.1,1.5,0.4,2.9,1.4,4.1
		c1,1,2.4,1.5,3.7,1.5c1.3,0,2.7-0.5,3.7-1.5c1-1.1,1.5-2.5,1.4-4c0.1-1.5-0.4-2.9-1.4-4C35.2,16.2,33.8,15.7,32.5,15.7L32.5,15.7z"
		/>
</g>
<path class="st0" d="M61,14.7c-1.4-1.7-3.6-2.6-5.8-2.6c-2.1,0-4,0.9-5.4,2.5V0h-4v29.6h4v-1.8c1.4,1.5,3.3,2.3,5.3,2.3
	c2.2,0,4.4-0.9,5.8-2.6c1.6-1.8,2.4-4.1,2.3-6.5C63.3,18.7,62.5,16.4,61,14.7z M57.8,25.2c-0.8,1-2.1,1.6-3.4,1.5
	c-1.3,0-2.6-0.5-3.5-1.5c-0.9-1.1-1.4-2.5-1.3-4c-0.1-1.4,0.4-2.8,1.4-3.9c0.9-1,2.2-1.6,3.5-1.5c1.3,0,2.6,0.6,3.4,1.6
	c0.9,1.1,1.4,2.5,1.3,4C59.3,22.7,58.8,24.1,57.8,25.2z"/>
<g>
	<path class="st3" d="M54.3,26.2c-1.1,0-2.2-0.5-3-1.4c-0.8-1-1.3-2.3-1.2-3.6c-0.1-1.4,0.4-2.6,1.2-3.6c0.8-0.9,1.9-1.4,3-1.4
		l0.1,0c1.2,0,2.3,0.5,3,1.4c0.8,1,1.3,2.3,1.2,3.7c0,1.3-0.4,2.6-1.2,3.6c-0.7,0.9-1.8,1.4-2.9,1.4L54.3,26.2z"/>
	<path class="st2" d="M54.3,16.7l0.1,0l0,0l0,0l0.1,0c1,0,1.9,0.4,2.6,1.2c0.8,0.9,1.2,2.1,1.1,3.3l0,0l0,0c0,1.2-0.4,2.3-1.1,3.2
		c-0.6,0.7-1.6,1.2-2.6,1.2l-0.1,0l0,0l0,0l-0.1,0c-1,0-1.9-0.4-2.6-1.2c-0.8-0.9-1.2-2.1-1.1-3.3l0,0l0,0c-0.1-1.2,0.3-2.3,1.1-3.2
		C52.4,17.1,53.3,16.7,54.3,16.7 M54.3,15.7c-1.3,0-2.5,0.6-3.4,1.5c-0.9,1.1-1.4,2.5-1.4,3.9c-0.1,1.5,0.4,2.9,1.3,4
		c0.8,1,2.1,1.5,3.3,1.5c0.1,0,0.1,0,0.2,0c0,0,0.1,0,0.1,0c1.3,0,2.5-0.6,3.3-1.5c0.9-1.1,1.4-2.5,1.4-3.9c0.1-1.5-0.4-2.9-1.3-4
		c-0.8-1-2-1.6-3.3-1.6c0,0,0,0-0.1,0C54.4,15.7,54.4,15.7,54.3,15.7L54.3,15.7z"/>
</g>
<path class="st0" d="M66.8,5.4c0-1.4,1.2-2.6,2.6-2.6C70.9,2.9,72,4,72,5.5c0,0.7-0.3,1.4-0.8,1.8c-0.5,0.5-1.1,0.8-1.8,0.8
	c-0.7,0-1.4-0.3-1.8-0.8C67.1,6.8,66.8,6.1,66.8,5.4z M71.4,12.6v17.1h-4V12.6L71.4,12.6z"/>
<path class="st0" d="M80.4,0v18.1l5.6-5.5h5.3l-7.4,7.2l8,9.9h-5.1L81,22.5l-0.6,0.6v6.6h-4V0H80.4z"/>
<path class="st0" d="M107,12.6v2c-1.4-1.5-3.3-2.4-5.4-2.5c-2.2,0-4.3,0.9-5.8,2.6c-1.5,1.8-2.4,4.1-2.3,6.4
	c-0.1,2.4,0.7,4.7,2.3,6.5c0.1,0.1,0.3,0.3,0.4,0.4c3,2.9,7.8,2.9,10.7-0.1v1.8h4V12.6H107z M105.8,25.1c-0.9,1-2.2,1.6-3.5,1.5
	c-1.3,0-2.6-0.6-3.4-1.6c-0.9-1.1-1.4-2.5-1.3-4c-0.1-1.4,0.4-2.8,1.4-3.9c0.8-1,2.1-1.6,3.4-1.5c1.3,0,2.6,0.5,3.5,1.5
	c0.9,1.1,1.4,2.6,1.4,4C107.3,22.5,106.8,24,105.8,25.1z"/>
<g>
	<path class="st4" d="M102.3,26.1c-1.2,0-2.3-0.5-3-1.4c-0.8-1-1.3-2.3-1.2-3.7c-0.1-1.4,0.4-2.6,1.2-3.6c0.7-0.9,1.8-1.4,2.9-1.4
		l0.2,0c1.2,0,2.2,0.5,3,1.4c0.8,1,1.3,2.3,1.2,3.7c0.1,1.4-0.4,2.7-1.2,3.7c-0.8,0.8-1.9,1.3-3,1.3L102.3,26.1z"/>
	<path class="st2" d="M102.5,16.6c1,0,2,0.4,2.6,1.2c0.8,0.9,1.2,2.1,1.1,3.3l0,0l0,0c0,1.2-0.3,2.4-1.1,3.3
		c-0.7,0.8-1.6,1.2-2.6,1.2l-0.1,0l0,0l0,0l-0.1,0c-1,0-1.9-0.4-2.6-1.2c-0.8-0.9-1.1-2.1-1.1-3.3l0,0l0,0c0-1.2,0.3-2.3,1.1-3.2
		c0.6-0.8,1.6-1.2,2.5-1.2l0.1,0l0,0l0,0L102.5,16.6 M102.5,15.6c0,0-0.1,0-0.1,0c0,0-0.1,0-0.1,0c-1.3,0-2.5,0.6-3.3,1.6
		c-0.9,1.1-1.4,2.5-1.4,3.9c-0.1,1.5,0.4,2.9,1.3,4c0.8,1,2,1.6,3.3,1.6c0,0,0,0,0.1,0c0.1,0,0.1,0,0.2,0c1.3,0,2.5-0.6,3.4-1.5
		c0.9-1.1,1.4-2.5,1.4-4c0.1-1.4-0.4-2.9-1.4-4C105,16.1,103.8,15.6,102.5,15.6L102.5,15.6z"/>
</g>
<path class="st0" d="M119.9,0v18.1l5.6-5.5h5.3l-7.4,7.2l8,9.9h-5.1l-5.7-7.2l-0.6,0.6v6.6h-4V0H119.9z"/>
<path class="st0" d="M146.3,23.3c-0.6,1-1.3,1.9-2.2,2.6c-0.7,0.5-1.6,0.7-2.4,0.7c-1.2,0-2.3-0.4-3.1-1.2c-0.8-0.9-1.3-2.1-1.4-3.4
	h12.3l0-0.9c0.2-2.4-0.6-4.8-2.2-6.6c-1.5-1.6-3.7-2.5-6-2.4c-2.3-0.1-4.5,0.8-6,2.5c-1.5,1.8-2.4,4.2-2.2,6.6
	c-0.1,2.4,0.7,4.8,2.3,6.6c1.6,1.7,3.9,2.6,6.2,2.5c0.8,0,1.7-0.1,2.5-0.3c0.8-0.2,1.5-0.5,2.1-0.9c0.7-0.4,1.3-1,1.9-1.6
	c0.6-0.7,1.2-1.5,1.6-2.3L146.3,23.3z M138,17.5c0.2-0.4,0.5-0.7,0.9-1c0.7-0.6,1.6-0.9,2.5-0.8c2-0.1,3.7,1.2,4,3.2l-8,0
	C137.5,18.3,137.7,17.9,138,17.5z"/>
<g>
	<path class="st5" d="M138.1,18.3c0.1-0.2,0.2-0.4,0.3-0.6c0.2-0.3,0.5-0.6,0.8-0.9c0.6-0.5,1.4-0.7,2.1-0.7c0.2,0,0.2,0,0.3,0
		c1.4,0,2.6,0.9,3.1,2.2L138.1,18.3z"/>
	<path class="st2" d="M141.7,16.6c0.9,0,1.8,0.5,2.3,1.2l-4.9,0c0.2-0.2,0.3-0.4,0.5-0.5c0.5-0.4,1.2-0.6,1.9-0.6c0,0,0,0,0,0l0,0
		l0,0C141.5,16.6,141.6,16.6,141.7,16.6 M141.7,15.6c-0.1,0-0.2,0-0.3,0c0,0,0,0,0,0c-0.9,0-1.8,0.3-2.5,0.9c-0.3,0.3-0.7,0.6-0.9,1
		c-0.2,0.4-0.4,0.8-0.6,1.3l8,0C145.1,17,143.5,15.6,141.7,15.6L141.7,15.6z"/>
</g>
</svg>
