<?xml version="1.0" encoding="utf-8"?>
<!-- Generator: Adobe Illustrator 23.1.1, SVG Export Plug-In . SVG Version: 6.00 Build 0)  -->
<svg version="1.1" id="a6289666-6d3e-4a29-9029-0e42401698fd"
	 xmlns="http://www.w3.org/2000/svg" xmlns:xlink="http://www.w3.org/1999/xlink" x="0px" y="0px" viewBox="0 0 208.2 30.1"
	 style="enable-background:new 0 0 208.2 30.1;" xml:space="preserve">
<style type="text/css">
	.st0{fill:#2A2A49;}
	.st1{fill:#FF8F57;}
	.st2{fill:#FFFFFF;}
	.st3{fill:#41B784;}
	.st4{fill:#418FB5;}
	.st5{fill:#F74F4F;}
	.st6{fill:#C3424F;}
</style>
<path class="st0" d="M67.5,17.9L58.6,2.5h4.7l6.2,10.8l6.2-10.8h4.7l-8.9,15.4v11.7h-4.1L67.5,17.9z"/>
<path class="st0" d="M97.7,14.7c-3.6-3.5-9.4-3.5-13,0C83,16.3,82,18.6,82,21c-0.1,2.4,0.9,4.8,2.6,6.5s4,2.7,6.4,2.6
	c2.5,0.1,4.8-0.9,6.6-2.6c1.8-1.7,2.7-4,2.6-6.4C100.3,18.7,99.4,16.4,97.7,14.7z M94.8,25.1c-2.1,2-5.4,2-7.4,0
	c-1-1.1-1.5-2.6-1.4-4.1v-0.1c-0.1-1.4,0.4-2.8,1.4-3.9c2-2,5.3-2,7.4,0c1,1.1,1.5,2.5,1.4,4C96.3,22.6,95.8,24,94.8,25.1z"/>
<g>
	<path class="st1" d="M91.1,26.1c-1.3,0-2.5-0.5-3.4-1.4c-0.8-1-1.3-2.2-1.2-3.6l0,0v-0.2c-0.1-1.3,0.4-2.5,1.2-3.5
		c0.9-0.9,2.1-1.3,3.3-1.3c1.3,0,2.4,0.5,3.3,1.4c0.9,1,1.3,2.3,1.2,3.6c0.1,1.4-0.4,2.7-1.3,3.7C93.6,25.7,92.4,26.1,91.1,26.1z"/>
	<path class="st2" d="M91.1,16.6c1.1,0,2.2,0.4,3,1.2c0.8,0.9,1.2,2.1,1.1,3.3v0.1v0.1c0.1,1.2-0.3,2.4-1.1,3.3
		c-0.8,0.8-1.9,1.2-3,1.2s-2.2-0.4-3-1.2c-0.7-0.9-1.1-2-1.1-3.1l0.1-0.1v-0.3c0-1.2,0.3-2.3,1.1-3.1C89,17,90,16.6,91.1,16.6
		 M91.1,15.6c-1.3,0-2.7,0.5-3.7,1.5C86.5,18.2,86,19.6,86,21v0.1c-0.1,1.5,0.4,2.9,1.4,4.1c1,1,2.4,1.5,3.7,1.5s2.7-0.5,3.7-1.5
		c1-1.1,1.5-2.5,1.4-4c0.1-1.5-0.4-2.9-1.4-4S92.5,15.6,91.1,15.6L91.1,15.6z"/>
</g>
<path class="st0" d="M119.6,14.6c-1.4-1.7-3.6-2.6-5.8-2.6c-2.1,0-4,0.9-5.4,2.5V0h-4v29.6h4v-1.8c1.4,1.5,3.3,2.3,5.3,2.3
	c2.2,0,4.4-0.9,5.8-2.6c1.6-1.8,2.4-4.1,2.3-6.5C121.9,18.7,121.1,16.4,119.6,14.6z M116.5,25.1c-0.8,1-2.1,1.6-3.4,1.5
	c-1.3,0-2.6-0.5-3.5-1.5c-0.9-1.1-1.4-2.5-1.3-4c-0.1-1.4,0.4-2.8,1.4-3.9c0.9-1,2.2-1.6,3.5-1.5c1.3,0,2.6,0.6,3.4,1.6
	c0.9,1.1,1.4,2.5,1.3,4C117.9,22.7,117.4,24.1,116.5,25.1z"/>
<g>
	<path class="st3" d="M112.9,26.2c-1.1,0-2.2-0.5-3-1.4c-0.8-1-1.3-2.3-1.2-3.6c-0.1-1.4,0.4-2.6,1.2-3.6c0.8-0.9,1.9-1.4,3-1.4h0.1
		c1.2,0,2.3,0.5,3,1.4c0.8,1,1.3,2.3,1.2,3.7c0,1.3-0.4,2.6-1.2,3.6c-0.7,0.9-1.8,1.4-2.9,1.4L112.9,26.2z"/>
	<path class="st2" d="M112.9,16.7L112.9,16.7L112.9,16.7L112.9,16.7h0.2c1,0,1.9,0.4,2.6,1.2c0.8,0.9,1.2,2.1,1.1,3.3l0,0l0,0
		c0,1.2-0.4,2.3-1.1,3.2c-0.6,0.7-1.6,1.2-2.6,1.2H113l0,0l0,0h-0.1c-1,0-1.9-0.4-2.6-1.2c-0.8-0.9-1.2-2.1-1.1-3.3l0,0l0,0
		c-0.1-1.2,0.3-2.3,1.1-3.2C111,17.1,111.9,16.7,112.9,16.7 M112.9,15.7c-1.3,0-2.5,0.6-3.4,1.5c-0.9,1.1-1.4,2.5-1.4,3.9
		c-0.1,1.5,0.4,2.9,1.3,4c0.8,1,2.1,1.5,3.3,1.5c0.1,0,0.1,0,0.2,0h0.1c1.3,0,2.5-0.6,3.3-1.5c0.9-1.1,1.4-2.5,1.4-3.9
		c0.1-1.5-0.4-2.9-1.3-4c-0.8-1-2-1.6-3.3-1.6C113.1,15.6,113.1,15.6,112.9,15.7C113,15.7,113,15.7,112.9,15.7L112.9,15.7z"/>
</g>
<path class="st0" d="M125.5,5.4c0-1.4,1.2-2.6,2.6-2.6c1.4,0,2.6,1.2,2.6,2.6c0,0.7-0.3,1.4-0.8,1.8C129.4,7.7,128.7,8,128,8
	s-1.4-0.3-1.8-0.8C125.7,6.8,125.4,6.1,125.5,5.4z M130,12.5v17.1h-4V12.5H130z"/>
<path class="st0" d="M139,0v18.1l5.6-5.5h5.3l-7.4,7.2l8,9.9h-5.1l-5.7-7.2l-0.6,0.6v6.6h-4V0H139z"/>
<path class="st0" d="M165.6,12.5v2c-1.4-1.5-3.3-2.4-5.4-2.5c-2.2,0-4.3,0.9-5.8,2.6c-1.5,1.8-2.4,4.1-2.3,6.4
	c-0.1,2.4,0.7,4.7,2.3,6.5c0.1,0.1,0.3,0.3,0.4,0.4c3,2.9,7.8,2.9,10.7-0.1v1.8h4V12.5H165.6z M164.5,25c-0.9,1-2.2,1.6-3.5,1.5
	c-1.3,0-2.6-0.6-3.4-1.6c-0.9-1.1-1.4-2.5-1.3-4c-0.1-1.4,0.4-2.8,1.4-3.9c0.8-1,2.1-1.6,3.4-1.5c1.3,0,2.6,0.5,3.5,1.5
	c0.9,1.1,1.4,2.6,1.4,4C165.9,22.5,165.4,23.9,164.5,25z"/>
<g>
	<path class="st4" d="M160.9,26.1c-1.2,0-2.3-0.5-3-1.4c-0.8-1-1.3-2.3-1.2-3.7c-0.1-1.4,0.4-2.6,1.2-3.6c0.7-0.9,1.8-1.4,2.9-1.4
		h0.2c1.2,0,2.2,0.5,3,1.4c0.8,1,1.3,2.3,1.2,3.7c0.1,1.4-0.4,2.7-1.2,3.7C163.2,25.6,162.1,26.1,160.9,26.1L160.9,26.1z"/>
	<path class="st2" d="M161.1,16.5c1,0,2,0.4,2.6,1.2c0.8,0.9,1.2,2.1,1.1,3.3l0,0l0,0c0,1.2-0.3,2.4-1.1,3.3
		c-0.7,0.8-1.6,1.2-2.6,1.2H161l0,0l0,0h-0.1c-1,0-1.9-0.4-2.6-1.2c-0.8-0.9-1.1-2.1-1.1-3.3l0,0l0,0c0-1.2,0.3-2.3,1.1-3.2
		c0.6-0.8,1.6-1.2,2.5-1.2h0.1l0,0l0,0L161.1,16.5 M161.1,15.5H161h-0.1c-1.3,0-2.5,0.6-3.3,1.6c-0.9,1.1-1.4,2.5-1.4,3.9
		c-0.1,1.5,0.4,2.9,1.3,4c0.8,1,2,1.6,3.3,1.6c0,0,0,0,0.1,0s0.1,0,0.2,0c1.3,0,2.5-0.6,3.4-1.5c0.9-1.1,1.4-2.5,1.4-4
		c0.1-1.4-0.4-2.9-1.4-4C163.6,16.1,162.4,15.5,161.1,15.5L161.1,15.5z"/>
</g>
<path class="st0" d="M178.5,0v18.1l5.6-5.5h5.3l-7.4,7.2l8,9.9h-5.1l-5.7-7.2l-0.6,0.6v6.6h-4V0H178.5z"/>
<path class="st0" d="M204.9,23.3c-0.6,1-1.3,1.9-2.2,2.6c-0.7,0.5-1.6,0.7-2.4,0.7c-1.2,0-2.3-0.4-3.1-1.2c-0.8-0.9-1.3-2.1-1.4-3.4
	h12.3v-0.9c0.2-2.4-0.6-4.8-2.2-6.6c-1.5-1.6-3.7-2.5-6-2.4c-2.3-0.1-4.5,0.8-6,2.5c-1.5,1.8-2.4,4.2-2.2,6.6
	c-0.1,2.4,0.7,4.8,2.3,6.6c1.6,1.7,3.9,2.6,6.2,2.5c0.8,0,1.7-0.1,2.5-0.3c0.8-0.2,1.5-0.5,2.1-0.9c0.7-0.4,1.3-1,1.9-1.6
	c0.6-0.7,1.2-1.5,1.6-2.3L204.9,23.3z M196.6,17.5c0.2-0.4,0.5-0.7,0.9-1c0.7-0.6,1.6-0.9,2.5-0.8c2-0.1,3.7,1.2,4,3.2h-8
	C196.2,18.3,196.4,17.9,196.6,17.5z"/>
<g>
	<path class="st5" d="M196.7,18.3c0.1-0.2,0.2-0.4,0.3-0.6c0.2-0.3,0.5-0.6,0.8-0.9c0.6-0.5,1.4-0.7,2.1-0.7c0.2,0,0.2,0,0.3,0
		c1.4,0,2.6,0.9,3.1,2.2H196.7z"/>
	<path class="st2" d="M200.3,16.6c0.9,0,1.8,0.5,2.3,1.2h-4.9c0.2-0.2,0.3-0.4,0.5-0.5c0.5-0.4,1.2-0.6,1.9-0.6l0,0l0,0l0,0
		C200.1,16.6,200.2,16.6,200.3,16.6 M200.3,15.6c-0.1,0-0.2,0-0.3,0l0,0c-0.9,0-1.8,0.3-2.5,0.9c-0.3,0.3-0.7,0.6-0.9,1
		s-0.4,0.8-0.6,1.3h8C203.7,16.9,202.1,15.6,200.3,15.6L200.3,15.6z"/>
</g>
<g>
	<ellipse transform="matrix(0.9747 -0.2235 0.2235 0.9747 -5.0102 1.7497)" class="st5" cx="5.2" cy="23" rx="3.1" ry="6.6"/>
	<polygon class="st5" points="41.5,29.6 6.2,29.5 3.2,16.7 34.9,1.2 	"/>
	<ellipse transform="matrix(0.9747 -0.2235 0.2235 0.9747 -2.4731 8.9293)" class="st6" cx="38.2" cy="15.4" rx="4.5" ry="14.5"/>
</g>
</svg>
